<?xml version="1.0" encoding="UTF-8" standalone="no"?>
<svg width="200" height="200" viewBox="0 0 200 200" fill="none" xmlns="http://www.w3.org/2000/svg">
  <!-- Background Circle -->
  <circle cx="100" cy="100" r="95" fill="#1A1A1A" stroke="#C43332" stroke-width="5"/>
  
  <!-- Controller Icon -->
  <path d="M140 80C140 74.4772 135.523 70 130 70H70C64.4772 70 60 74.4772 60 80V120C60 125.523 64.4772 130 70 130H130C135.523 130 140 125.523 140 120V80Z" fill="#29A56C"/>
  
  <!-- D-Pad -->
  <rect x="70" y="90" width="20" height="20" rx="2" fill="#FFCD0F"/>
  <rect x="75" y="85" width="10" height="30" rx="2" fill="#FFCD0F"/>
  
  <!-- Buttons -->
  <circle cx="120" cy="95" r="5" fill="#C43332"/>
  <circle cx="110" cy="105" r="5" fill="#C43332"/>
  <circle cx="130" cy="105" r="5" fill="#C43332"/>
  <circle cx="120" cy="115" r="5" fill="#C43332"/>
  
  <!-- Text -->
  <path d="M45 150H50.8L63.2 170.4V150H69V180H63.2L50.8 159.6V180H45V150Z" fill="white"/>
  <path d="M73 150H94V155H79V162H92V167H79V175H94V180H73V150Z" fill="white"/>
  <path d="M98 150H104V175H119V180H98V150Z" fill="white"/>
  <path d="M122 150H143V155H128V162H141V167H128V175H143V180H122V150Z" fill="white"/>
  <path d="M147 150H153V162H166V150H172V180H166V167H153V180H147V150Z" fill="white"/>
</svg>
